# xmcd
#
# Track frame offsets:
#	150
#	18918
#	37128
#	57262
#	75686
#	93071
#	108764
#	127324
#	144291
#	164976
#
# Disc length: 2475 seconds
#
# Revision: 4294836253
# Processed by: cddbd v1.5.2PL0 Copyright (c) Steve Scherf et al.
# Submitted via: EZCDAudioConverter 8.0.2.1
#
DISCID=8309a90a
DTITLE=梁静茹 - 现在开始我爱你 2004～2009 新歌＋精选CD2
DYEAR=2011
DGENRE=World Pop
TTITLE0=属于
TTITLE1=暖暖
TTITLE2=没有如果（Rap：严爵）
TTITLE3=燕尾蝶
TTITLE4=我都知道
TTITLE5=宁夏
TTITLE6=小手拉大手
TTITLE7=满满的都是爱
TTITLE8=今天情人节
TTITLE9=蔚蓝海岸
EXTD=
EXTT0=
EXTT1=
EXTT2=
EXTT3=
EXTT4=
EXTT5=
EXTT6=
EXTT7=
EXTT8=
EXTT9=
PLAYORDER=
